<?xml version="1.0" ?>
<!DOCTYPE svg  PUBLIC '-//W3C//DTD SVG 1.1//EN'  'http://www.w3.org/Graphics/SVG/1.1/DTD/svg11.dtd'>
<svg t="1573487864944" class="icon" viewBox="0 0 1024 1024" version="1.1" xmlns="http://www.w3.org/2000/svg" p-id="3439" width="1024" height="1024">
<path
style="fill:none;stroke:black;stroke-width:3"
 d="M938.666667 341.333333c17.066667 0 34.133333 10.666667 40.533333 27.733334 8.533333 21.333333-2.133333 46.933333-25.6 55.466666-53.333333 19.2-91.733333 53.333333-134.4 87.466667-4.266667 4.266667-8.533333 6.4-12.8 10.666667V682.666667H853.333333c14.933333 0 29.866667 8.533333 36.266667 21.333333 8.533333 12.8 6.4 29.866667 0 42.666667l-87.466667 149.333333c-8.533333 12.8-21.333333 21.333333-36.266666 21.333333-4.266667 0-8.533333 0-10.666667-2.133333-19.2-4.266667-32-21.333333-32-40.533333V584.533333c-14.933333 8.533333-29.866667 17.066667-44.8 23.466667C637.866667 699.733333 509.866667 917.333333 192 917.333333c-83.2 0-149.333333-66.133333-149.333333-149.333333s66.133333-149.333333 149.333333-149.333333c40.533333 0 76.8 14.933333 104.533333 42.666666 17.066667 17.066667 17.066667 42.666667 0 59.733334-17.066667 17.066667-42.666667 17.066667-59.733333 0-10.666667-10.666667-27.733333-17.066667-44.8-17.066667-36.266667 0-64 27.733333-64 64s27.733333 64 64 64c209.066667 0 317.866667-106.666667 373.333333-194.133333-17.066667 2.133333-34.133333 2.133333-53.333333 2.133333-155.733333 0-236.8-68.266667-309.333333-128-40.533333-34.133333-78.933333-66.133333-130.133334-87.466667-17.066667-4.266667-29.866667-21.333333-29.866666-40.533333 0-23.466667 19.2-42.666667 42.666666-42.666667 98.133333 0 147.2-19.2 198.4-40.533333 55.466667-21.333333 113.066667-44.8 228.266667-44.8 115.2 0 172.8 23.466667 228.266667 44.8 51.2 21.333333 100.266667 40.533333 198.4 40.533333z m-172.8 104.533334c12.8-10.666667 25.6-21.333333 40.533333-34.133334-38.4-8.533333-68.266667-21.333333-96-32-27.733333-10.666667-55.466667-21.333333-91.733333-29.866666 0 4.266667 2.133333 8.533333 2.133333 10.666666 0 59.733333-46.933333 106.666667-106.666667 106.666667s-106.666667-46.933333-106.666666-106.666667c0-4.266667 0-8.533333 2.133333-10.666666-36.266667 8.533333-64 19.2-91.733333 29.866666-29.866667 10.666667-59.733333 23.466667-96 32 14.933333 10.666667 27.733333 21.333333 40.533333 34.133334 68.266667 57.6 128 108.8 253.866667 108.8 44.8 0 83.2-6.4 115.2-19.2h2.133333c49.066667-19.2 89.6-53.333333 132.266667-89.6zM85.333333 256c115.2 0 172.8-23.466667 228.266667-44.8C364.8 189.866667 413.866667 170.666667 512 170.666667c98.133333 0 147.2 19.2 198.4 40.533333 55.466667 21.333333 113.066667 44.8 228.266667 44.8 23.466667 0 42.666667-19.2 42.666666-42.666667s-19.2-42.666667-42.666666-42.666666c-98.133333 0-147.2-19.2-198.4-40.533334C684.8 108.8 627.2 85.333333 512 85.333333c-115.2 0-172.8 23.466667-228.266667 44.8C232.533333 151.466667 183.466667 170.666667 85.333333 170.666667c-23.466667 0-42.666667 19.2-42.666666 42.666666s19.2 42.666667 42.666666 42.666667">
</path>
</svg>
