<svg width="1024" height="1024" viewBox="0 0 1024 1024" fill="none" xmlns="http://www.w3.org/2000/svg">
<path d="M389.713 357.25V670H338.413V455.8L243.013 670H207.463L111.613 455.8V670H60.3135V357.25H115.663L225.463 602.5L334.814 357.25H389.713ZM440.04 512.95C440.04 482.35 447.09 454.9 461.19 430.6C475.59 406.3 494.94 387.4 519.24 373.9C543.84 360.1 570.69 353.2 599.79 353.2C633.09 353.2 662.64 361.45 688.44 377.95C714.54 394.15 733.44 417.25 745.14 447.25H683.49C675.39 430.75 664.14 418.45 649.74 410.35C635.34 402.25 618.69 398.2 599.79 398.2C579.09 398.2 560.64 402.85 544.44 412.15C528.24 421.45 515.49 434.8 506.19 452.2C497.19 469.6 492.69 489.85 492.69 512.95C492.69 536.05 497.19 556.3 506.19 573.7C515.49 591.1 528.24 604.6 544.44 614.2C560.64 623.5 579.09 628.15 599.79 628.15C618.69 628.15 635.34 624.1 649.74 616C664.14 607.9 675.39 595.6 683.49 579.1H745.14C733.44 609.1 714.54 632.2 688.44 648.4C662.64 664.6 633.09 672.7 599.79 672.7C570.39 672.7 543.54 665.95 519.24 652.45C494.94 638.65 475.59 619.6 461.19 595.3C447.09 571 440.04 543.55 440.04 512.95Z M807.049 457.75C829.449 438.383 847.066 422.517 859.899 410.15C872.966 397.55 883.816 384.483 892.449 370.95C901.082 357.417 905.399 343.883 905.399 330.35C905.399 316.35 902.016 305.383 895.249 297.45C888.716 289.517 878.332 285.55 864.099 285.55C850.332 285.55 839.599 289.983 831.899 298.85C824.432 307.483 820.466 319.15 819.999 333.85H781.499C782.199 307.25 790.132 286.95 805.299 272.95C820.699 258.717 840.182 251.6 863.749 251.6C889.182 251.6 909.016 258.6 923.249 272.6C937.716 286.6 944.949 305.267 944.949 328.6C944.949 345.4 940.632 361.617 931.999 377.25C923.599 392.65 913.449 406.533 901.549 418.9C889.882 431.033 874.949 445.15 856.749 461.25L840.999 475.25H951.949V508.5H781.849V479.45L807.049 457.75Z" fill="black"/>
</svg>